<svg width="157" height="99" viewBox="0 0 157 99" fill="none" xmlns="http://www.w3.org/2000/svg">
<mask id="mask0_183_61" style="mask-type:luminance" maskUnits="userSpaceOnUse" x="0" y="0" width="157" height="99">
<path d="M0 0H156.088V99H0V0Z" fill="white"/>
</mask>
<g mask="url(#mask0_183_61)">
<path d="M17.7421 38.3039H8.27082V28.4882C8.27082 20.6541 11.4775 13.5256 16.6262 8.37127C21.7862 3.20938 28.9071 0.00836182 36.7356 0.00836182C44.564 0.00836182 51.6774 3.20938 56.8355 8.37127C61.9937 13.5256 65.1909 20.6541 65.1909 28.4882V38.3039H55.729V28.4882C55.729 23.2642 53.5856 18.5182 50.1456 15.0669C46.6981 11.6156 41.9539 9.47968 36.7356 9.47968C31.5172 9.47968 26.7731 11.6156 23.3256 15.0669C19.8761 18.5144 17.7421 23.2623 17.7421 28.4863V38.3039ZM61.0716 91.8743H73.4466C73.1172 95.8431 69.7732 98.9933 65.731 98.9933H7.74391C3.4853 98.9933 0.00012207 95.5081 0.00012207 91.242V51.0948C0.00012207 46.8324 3.48153 43.3453 7.74391 43.3453H65.7272C69.7732 43.3453 73.1172 46.4842 73.4428 50.4549H61.0697C56.4197 50.4549 52.6089 54.2581 52.6089 58.9213V83.4154C52.6127 88.0692 56.4234 91.8743 61.0716 91.8743ZM40.2358 72.8997C42.2569 71.6972 43.6137 69.4992 43.6137 66.9737C43.6137 63.1687 40.5275 60.09 36.7356 60.09C32.9343 60.09 29.8574 63.1687 29.8574 66.9737C29.8574 69.4992 31.2143 71.6972 33.2354 72.8997L31.8371 80.969C31.775 81.2983 31.8635 81.6013 32.0705 81.861C32.2869 82.1113 32.5711 82.2411 32.9004 82.2411H40.5651C40.9039 82.2411 41.1861 82.1113 41.3931 81.861C41.6096 81.6013 41.6867 81.2983 41.634 80.969L40.2358 72.8997ZM156.088 58.9213V83.4154C156.088 85.2935 154.548 86.8422 152.665 86.8422H61.0716C59.1878 86.8422 57.6485 85.2954 57.6485 83.4154V58.9213C57.6485 57.0357 59.1878 55.4945 61.0716 55.4945H152.665C154.548 55.4983 156.088 57.0357 156.088 58.9213ZM78.648 71.1684L80.9118 69.9659C82.1313 69.311 82.598 67.7886 81.9393 66.5673C81.2901 65.3478 79.7733 64.8811 78.5539 65.5304L75.8309 66.9832V64.3279C75.8309 62.9372 74.7093 61.81 73.3148 61.81C71.9223 61.81 70.8007 62.9372 70.8007 64.3279V66.9832L68.0871 65.5304C66.8582 64.8811 65.3471 65.3478 64.6904 66.5673C64.0411 67.7886 64.5022 69.311 65.7272 69.9659L67.9836 71.1684L65.7272 72.3709C64.4984 73.0201 64.0411 74.5406 64.6904 75.7601C65.3471 76.9908 66.8582 77.4481 68.0871 76.7989L70.8007 75.3555V77.9995C70.8007 79.392 71.926 80.5174 73.3148 80.5174C74.7055 80.5174 75.8309 79.392 75.8309 77.9995V75.3555L78.5539 76.7989C79.7733 77.4481 81.2939 76.987 81.9393 75.7601C82.5961 74.5406 82.1294 73.0182 80.9118 72.3709L78.648 71.1684ZM101.021 71.1684L103.278 69.9659C104.497 69.311 104.964 67.7886 104.305 66.5673C103.656 65.3478 102.137 64.8811 100.918 65.5304L98.2041 66.9832V64.3279C98.2041 62.9372 97.0731 61.81 95.6805 61.81C94.2861 61.81 93.1645 62.9372 93.1645 64.3279V66.9832L90.4509 65.5304C89.2315 64.8811 87.7109 65.3478 87.0561 66.5673C86.4068 67.7886 86.866 69.311 88.093 69.9659L90.3474 71.1684L88.093 72.3709C86.8641 73.0201 86.4068 74.5406 87.0561 75.7601C87.7109 76.9908 89.2239 77.4481 90.4509 76.7989L93.1645 75.3555V77.9995C93.1645 79.392 94.2861 80.5174 95.6805 80.5174C97.0731 80.5174 98.2041 79.392 98.2041 77.9995V75.3555L100.918 76.7989C102.137 77.4481 103.658 76.987 104.305 75.7601C104.96 74.5406 104.493 73.0182 103.278 72.3709L101.021 71.1684ZM123.385 71.1684L125.641 69.9659C126.861 69.311 127.327 67.7886 126.669 66.5673C126.02 65.3478 124.501 64.8811 123.282 65.5304L120.568 66.9832V64.3279C120.568 62.9372 119.437 61.81 118.044 61.81C116.661 61.81 115.53 62.9372 115.53 64.3279V66.9832L112.817 65.5304C111.597 64.8811 110.075 65.3478 109.42 66.5673C108.771 67.7886 109.237 69.311 110.457 69.9659L112.713 71.1684L110.457 72.3709C109.237 73.0201 108.771 74.5406 109.42 75.7601C110.075 76.9908 111.597 77.4481 112.817 76.7989L115.53 75.3555V77.9995C115.53 79.392 116.661 80.5174 118.044 80.5174C119.435 80.5174 120.568 79.392 120.568 77.9995V75.3555L123.282 76.7989C124.501 77.4481 126.023 76.987 126.669 75.7601C127.324 74.5406 126.857 73.0182 125.641 72.3709L123.385 71.1684ZM149.347 78.0032C149.347 76.6125 148.216 75.4853 146.833 75.4853H134.006C132.617 75.4853 131.483 76.6125 131.483 78.0032C131.483 79.3939 132.614 80.5211 134.006 80.5211H146.833C148.214 80.5174 149.347 79.3939 149.347 78.0032Z" fill="white"/>
</g>
</svg>
